<?xml version="1.0" encoding="UTF-8"?>
<svg xmlns="http://www.w3.org/2000/svg" xmlns:xlink="http://www.w3.org/1999/xlink" width="114px" height="100px" viewBox="0 0 113 100" version="1.1">
<g id="surface1">
<path style=" stroke:none;fill-rule:nonzero;fill:rgb(60.784316%,3.921569%,87.843138%);fill-opacity:1;" d="M 0.0625 71.761719 C 0.867188 71.945312 1.667969 72.191406 2.484375 72.359375 C 3.527344 72.578125 4.582031 72.5625 5.644531 72.492188 C 6.582031 72.429688 7.496094 72.285156 8.394531 72.039062 C 9.695312 71.683594 10.886719 71.089844 11.941406 70.226562 C 13.203125 69.191406 14.128906 67.894531 14.789062 66.414062 C 15.351562 65.160156 15.75 63.855469 15.972656 62.5 C 16.09375 61.765625 16.21875 61.03125 16.328125 60.296875 C 16.371094 60.015625 16.382812 59.730469 16.394531 59.449219 C 16.421875 58.867188 16.445312 58.289062 16.457031 57.707031 C 16.480469 56.5625 16.515625 55.417969 16.515625 54.273438 C 16.511719 52.675781 16.480469 51.078125 16.457031 49.480469 C 16.441406 48.441406 16.410156 47.398438 16.398438 46.355469 C 16.375 44.625 16.332031 42.894531 16.34375 41.164062 C 16.351562 40.296875 16.453125 39.425781 16.519531 38.558594 C 16.574219 37.851562 16.613281 37.140625 16.714844 36.441406 C 16.867188 35.367188 17.054688 34.296875 17.242188 33.222656 C 17.519531 31.664062 17.933594 30.140625 18.480469 28.65625 C 18.785156 27.816406 19.140625 26.992188 19.496094 26.171875 C 20.027344 24.945312 20.6875 23.78125 21.472656 22.699219 C 22.007812 21.960938 22.566406 21.230469 23.1875 20.5625 C 23.886719 19.808594 24.632812 19.085938 25.425781 18.429688 C 26.101562 17.875 26.847656 17.398438 27.597656 16.941406 C 28.800781 16.214844 30.089844 15.671875 31.429688 15.253906 C 32.605469 14.890625 33.804688 14.648438 35.019531 14.460938 C 36.828125 14.179688 38.640625 14.183594 40.453125 14.242188 C 41.484375 14.277344 42.523438 14.449219 43.539062 14.664062 C 44.726562 14.910156 45.90625 15.214844 47.054688 15.59375 C 48.089844 15.933594 49.078125 16.421875 50.09375 16.828125 C 50.402344 16.949219 50.429688 17.226562 50.523438 17.460938 C 51.085938 18.851562 51.632812 20.246094 52.199219 21.679688 C 51.847656 21.632812 51.523438 21.59375 51.199219 21.546875 C 50.507812 21.445312 49.820312 21.300781 49.125 21.25 C 48.136719 21.171875 47.140625 21.113281 46.152344 21.132812 C 44.824219 21.15625 43.53125 21.414062 42.292969 21.933594 C 41.101562 22.433594 40.074219 23.15625 39.21875 24.113281 C 38.378906 25.050781 37.785156 26.136719 37.320312 27.304688 C 36.785156 28.648438 36.445312 30.046875 36.171875 31.460938 C 36.019531 32.230469 35.9375 33.011719 35.855469 33.792969 C 35.753906 34.769531 35.660156 35.75 35.613281 36.730469 C 35.546875 38.125 35.515625 39.523438 35.488281 40.921875 C 35.46875 41.722656 35.480469 42.523438 35.484375 43.324219 C 35.503906 46.367188 35.535156 49.410156 35.539062 52.457031 C 35.539062 53.382812 35.476562 54.308594 35.417969 55.230469 C 35.375 55.960938 35.332031 56.691406 35.234375 57.410156 C 35.035156 58.8125 34.8125 60.210938 34.574219 61.609375 C 34.355469 62.914062 33.941406 64.171875 33.453125 65.398438 C 32.84375 66.941406 32.078125 68.414062 31.03125 69.707031 C 30.265625 70.65625 29.464844 71.59375 28.597656 72.453125 C 27.84375 73.199219 26.992188 73.851562 26.140625 74.496094 C 25.109375 75.277344 23.96875 75.898438 22.796875 76.449219 C 21.214844 77.191406 19.5625 77.734375 17.84375 78.070312 C 16.96875 78.242188 16.085938 78.371094 15.207031 78.503906 C 14.925781 78.546875 14.644531 78.558594 14.359375 78.566406 C 13.222656 78.589844 12.085938 78.648438 10.949219 78.621094 C 9.996094 78.597656 9.039062 78.507812 8.09375 78.375 C 6.960938 78.214844 5.824219 78.027344 4.710938 77.75 C 3.796875 77.523438 2.914062 77.15625 2.019531 76.835938 C 1.925781 76.800781 1.832031 76.675781 1.792969 76.574219 C 1.3125 75.28125 0.84375 73.984375 0.367188 72.6875 C 0.289062 72.476562 0.1875 72.273438 0.078125 72.085938 C 0.0625 72 0.0625 71.894531 0.0625 71.761719 Z M 0.0625 71.761719 "/>
<path style=" stroke:none;fill-rule:nonzero;fill:rgb(60.784316%,3.921569%,87.843138%);fill-opacity:1;" d="M 92.894531 73.558594 C 91.71875 71.90625 90.5625 70.265625 89.382812 68.644531 C 88.089844 66.863281 86.773438 65.101562 85.46875 63.332031 C 84.410156 61.894531 83.351562 60.457031 82.28125 59.03125 C 81.5 57.996094 80.699219 56.976562 79.910156 55.949219 C 79.25 55.089844 78.589844 54.230469 77.941406 53.359375 C 77.675781 53 77.402344 52.777344 76.898438 52.816406 C 76.097656 52.875 75.289062 52.839844 74.484375 52.828125 C 73.84375 52.820312 73.207031 52.789062 72.570312 52.769531 C 72.410156 52.765625 72.25 52.769531 72.039062 52.769531 C 72.070312 53.382812 72.101562 53.960938 72.128906 54.539062 C 72.136719 54.753906 72.121094 54.96875 72.125 55.183594 C 72.144531 56.042969 72.160156 56.898438 72.191406 57.757812 C 72.222656 58.691406 72.265625 59.628906 72.316406 60.5625 C 72.371094 61.636719 72.429688 62.707031 72.496094 63.78125 C 72.554688 64.722656 72.617188 65.660156 72.683594 66.597656 C 72.738281 67.40625 72.800781 68.210938 72.863281 69.019531 C 72.941406 69.96875 73.023438 70.917969 73.109375 71.867188 C 73.1875 72.714844 73.265625 73.558594 73.351562 74.40625 C 73.476562 75.621094 73.605469 76.835938 73.734375 78.046875 C 73.738281 78.085938 73.761719 78.117188 73.78125 78.171875 C 73.125 78.140625 72.484375 78.101562 71.84375 78.082031 C 70.40625 78.035156 68.964844 77.988281 67.527344 77.957031 C 66.113281 77.925781 64.699219 77.90625 63.289062 77.898438 C 62.539062 77.894531 61.785156 77.929688 61.039062 77.957031 C 60.179688 77.988281 59.320312 78.03125 58.464844 78.082031 C 58.070312 78.101562 57.683594 78.160156 57.292969 78.179688 C 57.207031 78.183594 57.101562 78.117188 57.035156 78.058594 C 56.625 77.695312 56.21875 77.328125 55.816406 76.957031 C 55.34375 76.527344 54.882812 76.085938 54.402344 75.667969 C 54.199219 75.492188 54.1875 75.292969 54.210938 75.066406 C 54.226562 74.90625 54.257812 74.746094 54.265625 74.585938 C 54.289062 73.839844 54.304688 73.09375 54.328125 72.351562 C 54.367188 71.3125 54.410156 70.273438 54.449219 69.234375 C 54.492188 68.0625 54.53125 66.890625 54.574219 65.71875 C 54.59375 65.066406 54.613281 64.414062 54.632812 63.761719 C 54.65625 63.035156 54.675781 62.3125 54.695312 61.585938 C 54.714844 60.78125 54.738281 59.976562 54.757812 59.167969 C 54.777344 58.15625 54.800781 57.144531 54.816406 56.132812 C 54.839844 54.691406 54.867188 53.246094 54.878906 51.804688 C 54.902344 48.328125 54.929688 44.855469 54.9375 41.378906 C 54.9375 39.855469 54.902344 38.332031 54.878906 36.804688 C 54.863281 35.8125 54.839844 34.824219 54.816406 33.832031 C 54.800781 33.035156 54.777344 32.238281 54.757812 31.441406 C 54.738281 30.738281 54.714844 30.035156 54.695312 29.332031 C 54.675781 28.707031 54.65625 28.085938 54.632812 27.464844 C 54.613281 26.882812 54.59375 26.304688 54.574219 25.722656 C 54.53125 24.652344 54.492188 23.585938 54.449219 22.515625 C 54.410156 21.589844 54.375 20.664062 54.324219 19.738281 C 54.296875 19.191406 54.25 18.648438 54.207031 18.101562 C 54.1875 17.886719 54.230469 17.722656 54.402344 17.558594 C 55.191406 16.804688 55.960938 16.035156 56.746094 15.273438 C 56.917969 15.105469 57.097656 14.941406 57.289062 14.792969 C 57.351562 14.742188 57.453125 14.71875 57.535156 14.71875 C 62.371094 14.714844 67.203125 14.710938 72.035156 14.71875 C 73.582031 14.722656 75.125 14.753906 76.671875 14.78125 C 77.503906 14.792969 78.335938 14.8125 79.167969 14.839844 C 80.179688 14.875 81.191406 14.914062 82.203125 14.964844 C 83.191406 15.015625 84.179688 15.070312 85.164062 15.152344 C 86.101562 15.234375 87.042969 15.324219 87.972656 15.460938 C 90.382812 15.816406 92.765625 16.292969 95.011719 17.273438 C 96.6875 18.011719 98.285156 18.910156 99.71875 20.058594 C 100.546875 20.722656 101.34375 21.445312 102.058594 22.230469 C 103.625 23.945312 104.785156 25.921875 105.441406 28.164062 C 105.710938 29.082031 105.847656 30.039062 106.023438 30.984375 C 106.257812 32.25 106.191406 33.539062 106.128906 34.804688 C 106.039062 36.667969 105.675781 38.5 104.964844 40.234375 C 104.425781 41.546875 103.738281 42.777344 102.839844 43.890625 C 101.632812 45.378906 100.195312 46.566406 98.546875 47.511719 C 97.429688 48.152344 96.253906 48.660156 95.035156 49.074219 C 94.992188 49.089844 94.949219 49.113281 94.890625 49.144531 C 95.296875 49.625 95.691406 50.09375 96.089844 50.5625 C 96.742188 51.320312 97.390625 52.078125 98.046875 52.835938 C 98.390625 53.234375 98.746094 53.625 99.097656 54.015625 C 99.933594 54.964844 100.773438 55.914062 101.613281 56.855469 C 102.066406 57.363281 102.527344 57.867188 102.988281 58.363281 C 103.90625 59.355469 104.832031 60.34375 105.753906 61.332031 C 106.347656 61.972656 106.941406 62.613281 107.539062 63.253906 C 108.261719 64.023438 108.984375 64.796875 109.714844 65.5625 C 110.59375 66.496094 111.480469 67.425781 112.363281 68.355469 C 112.457031 68.457031 112.539062 68.578125 112.617188 68.679688 C 111.375 69.597656 110.125 70.5 108.894531 71.429688 C 108.144531 71.996094 107.417969 72.597656 106.691406 73.195312 C 105.84375 73.886719 105 74.585938 104.167969 75.296875 C 103.585938 75.796875 103.023438 76.316406 102.457031 76.835938 C 101.671875 77.554688 100.890625 78.277344 100.117188 79.007812 C 99.5 79.585938 98.894531 80.175781 98.292969 80.765625 C 98.132812 80.921875 98.0625 80.949219 97.914062 80.730469 C 96.960938 79.335938 95.988281 77.957031 95.023438 76.578125 C 94.320312 75.574219 93.613281 74.578125 92.894531 73.558594 M 72.136719 48.582031 C 72.714844 48.523438 73.296875 48.488281 73.871094 48.394531 C 74.921875 48.230469 75.976562 48.0625 77.019531 47.835938 C 78.539062 47.511719 80.015625 47.035156 81.425781 46.363281 C 82.609375 45.800781 83.726562 45.125 84.730469 44.257812 C 85.820312 43.320312 86.738281 42.246094 87.414062 40.972656 C 88.441406 39.042969 88.820312 36.945312 88.890625 34.785156 C 88.902344 34.398438 88.871094 34.011719 88.832031 33.628906 C 88.738281 32.734375 88.691406 31.832031 88.503906 30.957031 C 88.152344 29.308594 87.503906 27.773438 86.519531 26.394531 C 85.816406 25.40625 85 24.523438 84.039062 23.792969 C 82.996094 22.996094 81.886719 22.3125 80.679688 21.785156 C 79.535156 21.285156 78.371094 20.855469 77.160156 20.570312 C 76.09375 20.316406 75.019531 20.105469 73.945312 19.898438 C 73.554688 19.820312 73.152344 19.804688 72.757812 19.757812 C 72.726562 19.992188 72.691406 20.195312 72.679688 20.402344 C 72.636719 21.320312 72.597656 22.238281 72.558594 23.15625 C 72.515625 24.175781 72.472656 25.191406 72.433594 26.210938 C 72.390625 27.355469 72.351562 28.503906 72.3125 29.652344 C 72.292969 30.324219 72.269531 30.996094 72.253906 31.667969 C 72.230469 32.414062 72.210938 33.160156 72.191406 33.910156 C 72.171875 34.839844 72.144531 35.769531 72.132812 36.703125 C 72.125 37.515625 72.136719 38.324219 72.128906 39.136719 C 72.125 39.527344 72.078125 39.914062 72.074219 40.304688 C 72.0625 41.542969 72.0625 42.785156 72.027344 44.066406 C 72.019531 45.539062 72.015625 47.011719 72.011719 48.484375 C 72.011719 48.519531 72.058594 48.550781 72.136719 48.582031 Z M 72.136719 48.582031 "/>
<path style=" stroke:none;fill-rule:nonzero;fill:rgb(75.294119%,34.509805%,44.313726%);fill-opacity:1;" d="M 72.042969 44.046875 C 72.0625 45.527344 72.066406 47.027344 72.078125 48.554688 C 72.058594 48.550781 72.011719 48.519531 72.011719 48.484375 C 72.015625 47.011719 72.019531 45.539062 72.042969 44.046875 Z M 72.042969 44.046875 "/>
</g>
</svg>
