<svg version="1.1" id="Layer_1" xmlns="http://www.w3.org/2000/svg" xmlns:xlink="http://www.w3.org/1999/xlink" x="0px" y="0px"
	 width="100%" viewBox="0 0 1847 1624" enable-background="new 0 0 1847 1624" xml:space="preserve">
<path fill="none" opacity="1.000000" stroke="none" 
	d="
M0.999995,1165.000000 
	C1.000000,777.022278 1.000000,389.044586 1.000000,1.033441 
	C616.609009,1.033441 1232.218018,1.033441 1847.913574,1.033441 
	C1847.913574,542.244507 1847.913574,1083.489136 1847.913574,1624.866821 
	C1232.457520,1624.866821 616.914978,1624.866821 1.000000,1624.866821 
	C1.000000,1473.965332 1.000000,1322.930298 1.276638,1171.106934 
	C3.040478,1173.695801 4.704177,1177.007446 5.985989,1180.461060 
	C13.787120,1201.479126 21.458298,1222.545410 29.326063,1243.538330 
	C29.956711,1245.220947 31.466619,1247.242065 33.033684,1247.801758 
	C47.611889,1253.008179 62.034718,1258.973511 77.009026,1262.664062 
	C95.179993,1267.142334 113.762863,1270.186768 132.315018,1272.807373 
	C147.752197,1274.988159 163.383606,1276.412354 178.963425,1276.805176 
	C197.532852,1277.273193 216.140060,1276.328857 234.728516,1275.894043 
	C239.337921,1275.786377 243.985291,1275.594604 248.533752,1274.904419 
	C262.941132,1272.718872 277.377747,1270.629517 291.679291,1267.863159 
	C319.729126,1262.437500 346.744873,1253.597168 372.636688,1241.525757 
	C391.792419,1232.595093 410.397644,1222.510132 427.301636,1209.791016 
	C441.167450,1199.357910 455.082092,1188.727661 467.434082,1176.613525 
	C481.628754,1162.692261 494.673401,1147.485107 507.228638,1132.033081 
	C524.306030,1111.015503 536.812622,1087.117065 546.817871,1062.056641 
	C554.767822,1042.144409 561.520630,1021.732849 565.146423,1000.510681 
	C569.020203,977.837463 572.677063,955.118774 575.883606,932.343323 
	C577.531433,920.638733 578.220459,908.780762 578.933289,896.967407 
	C579.839478,881.949829 580.909424,866.906555 580.893921,851.875427 
	C580.842957,802.443970 580.315674,753.013062 580.012146,703.581726 
	C579.932312,690.582703 579.772827,677.577820 580.050415,664.584290 
	C580.535339,641.882202 581.010864,619.171265 582.104797,596.493713 
	C582.872742,580.574585 584.421265,564.679810 586.068726,548.820618 
	C587.386108,536.139221 588.764893,523.408325 591.203735,510.911560 
	C595.685120,487.948242 601.252441,465.227844 609.991638,443.411224 
	C617.576416,424.476593 627.334229,406.794769 641.023743,391.610413 
	C655.040833,376.062775 671.815491,364.296356 691.271362,356.203552 
	C711.523682,347.779419 732.640930,343.579041 754.364624,343.176453 
	C770.545288,342.876587 786.792114,343.829895 802.943848,345.075134 
	C814.310547,345.951508 825.563354,348.282196 836.874695,349.910217 
	C842.147827,350.669189 847.439148,351.301910 853.196167,352.053772 
	C843.916016,328.779724 834.978760,306.130920 825.802124,283.579529 
	C824.252625,279.771576 823.833557,275.238373 818.813477,273.260010 
	C802.187378,266.707825 786.035095,258.790802 769.099182,253.230545 
	C750.318787,247.064728 731.038025,242.135498 711.673523,238.123428 
	C695.068726,234.683121 678.085815,231.879242 661.185913,231.314682 
	C631.585999,230.325836 601.929443,230.270126 572.418945,234.814209 
	C552.524048,237.877670 532.909729,241.824097 513.701904,247.740646 
	C491.803986,254.485840 470.740967,263.341766 451.106750,275.147552 
	C438.838257,282.524475 426.604858,290.260986 415.578247,299.323608 
	C402.641327,309.956238 390.461823,321.670319 379.014740,333.907776 
	C368.871521,344.751373 359.717438,356.616394 350.960999,368.638184 
	C338.154510,386.220245 327.359650,405.088135 318.641418,425.046844 
	C312.825867,438.360413 307.066772,451.727600 302.039734,465.350281 
	C293.139130,489.469818 286.334351,514.222168 281.851440,539.560974 
	C278.774780,556.951111 275.665314,574.346375 273.176239,591.825562 
	C271.557953,603.189880 270.932831,614.701782 270.035645,626.161072 
	C268.930481,640.276489 267.260040,654.400635 267.159546,668.530457 
	C266.959747,696.619690 267.620667,724.716003 268.016998,752.808105 
	C268.255798,769.736328 268.729919,786.661133 268.984528,803.589233 
	C269.374542,829.518555 269.879089,855.448914 269.928253,881.379639 
	C269.963531,899.976746 269.385254,918.576233 268.979614,937.172424 
	C268.773956,946.600769 268.407867,956.026978 267.989197,965.448608 
	C267.784790,970.048096 267.565308,974.675781 266.880066,979.219421 
	C265.078094,991.167725 263.023438,1003.078003 261.057709,1015.001526 
	C257.426025,1037.030273 250.897079,1058.227783 241.760025,1078.537476 
	C230.919205,1102.634277 215.826797,1123.697266 195.167358,1140.498901 
	C177.962982,1154.490601 158.488968,1164.110474 137.195175,1169.916260 
	C122.519501,1173.917480 107.571312,1176.252930 92.285225,1177.266235 
	C74.892502,1178.419312 57.628929,1178.649536 40.587414,1175.119507 
	C27.264580,1172.359619 14.186709,1168.417114 0.999995,1165.000000 
M1518.607178,1194.899536 
	C1530.124512,1211.133789 1541.677490,1227.342773 1553.150391,1243.608398 
	C1568.970093,1266.037109 1584.848389,1288.426636 1600.391724,1311.045776 
	C1602.855347,1314.631104 1604.024292,1314.181274 1606.609741,1311.656006 
	C1616.458984,1302.036865 1626.361694,1292.468262 1636.414551,1283.062500 
	C1649.072754,1271.218750 1661.852295,1259.502930 1674.666016,1247.826904 
	C1683.912109,1239.401855 1693.137939,1230.942139 1702.662842,1222.838623 
	C1716.247803,1211.281250 1730.027222,1199.948975 1743.856812,1188.683838 
	C1755.763672,1178.984741 1767.641479,1169.227295 1779.916504,1160.007568 
	C1800.007324,1144.917114 1820.410156,1130.242432 1840.760254,1115.334595 
	C1839.448486,1113.683594 1838.149292,1111.765259 1836.573853,1110.109741 
	C1822.165527,1094.969482 1807.685791,1079.897217 1793.273926,1064.760376 
	C1781.389526,1052.278076 1769.545288,1039.757324 1757.727173,1027.212402 
	C1747.964844,1016.849792 1738.274170,1006.419861 1728.538452,996.032227 
	C1713.479736,979.964905 1698.381226,963.934692 1683.356567,947.835510 
	C1675.802124,939.740967 1668.302124,931.593079 1660.903198,923.356445 
	C1647.131958,908.026611 1633.455444,892.611694 1619.734009,877.237244 
	C1614.023560,870.839050 1608.231323,864.512573 1602.594360,858.050476 
	C1591.890503,845.779724 1581.251343,833.452209 1570.625244,821.113892 
	C1564.107788,813.546204 1557.664429,805.914429 1550.997437,798.087891 
	C1551.963623,797.626831 1552.647949,797.209900 1553.388550,796.960022 
	C1573.275269,790.251770 1592.477051,782.020935 1610.733643,771.603821 
	C1637.683350,756.226562 1661.224854,736.962891 1680.903687,712.785339 
	C1695.617920,694.707336 1706.872192,674.701538 1715.660889,653.388306 
	C1727.263428,625.251709 1733.197876,595.515015 1734.686646,565.258667 
	C1735.701050,544.642944 1736.771362,523.761780 1732.959473,503.200775 
	C1730.114136,487.853333 1727.865845,472.277100 1723.464233,457.359680 
	C1712.726440,420.968384 1693.739624,388.864227 1668.160767,361.006683 
	C1656.461304,348.264984 1643.451050,336.508148 1629.897705,325.735870 
	C1606.457397,307.105530 1580.387817,292.491913 1552.953979,280.552094 
	C1516.244385,264.575256 1477.310181,256.835876 1437.953125,251.099106 
	C1422.713501,248.877747 1407.349731,247.385757 1391.997925,246.089447 
	C1375.897461,244.729965 1359.750977,243.863113 1343.611328,243.039795 
	C1327.088867,242.196930 1310.553345,241.585678 1294.018311,241.026993 
	C1280.423950,240.567673 1266.823364,240.238571 1253.222778,240.020523 
	C1227.959351,239.615494 1202.694214,239.086273 1177.429077,239.046280 
	C1098.434326,238.921234 1019.439148,238.994522 940.444214,239.047760 
	C939.073730,239.048691 937.418152,239.398285 936.387207,240.209763 
	C933.287292,242.649918 930.334351,245.299606 927.496216,248.045502 
	C914.716797,260.409393 902.089111,272.932159 889.182251,285.160645 
	C886.412720,287.784607 885.717163,290.508026 885.993652,293.963654 
	C886.702515,302.821381 887.494507,311.676758 887.963928,320.548401 
	C888.758911,335.573029 889.370239,350.607819 889.986572,365.641327 
	C890.698425,383.004150 891.341980,400.369873 891.995789,417.735046 
	C892.350891,427.166473 892.674561,436.599121 892.996155,446.031799 
	C893.340393,456.130341 893.682495,466.229004 893.994507,476.328583 
	C894.347534,487.760132 894.683167,499.192261 894.995056,510.625000 
	C895.347839,523.556519 895.697144,536.488281 895.991394,549.421265 
	C896.357727,565.519043 896.730835,581.617126 896.984619,597.716919 
	C897.375122,622.480652 897.989868,647.246704 897.934570,672.010498 
	C897.808594,728.440247 897.389038,784.869690 896.973450,841.298401 
	C896.800781,864.730957 896.370361,888.162048 895.987732,911.592651 
	C895.719421,928.025513 895.359131,944.457092 894.992004,960.888184 
	C894.699280,973.987793 894.347351,987.086182 893.997070,1000.184387 
	C893.682373,1011.950439 893.346680,1023.715820 892.996704,1035.480835 
	C892.681335,1046.080200 892.357117,1056.679321 891.995850,1067.277344 
	C891.346985,1086.309204 890.696655,1105.341064 889.991882,1124.370850 
	C889.367249,1141.237061 888.614197,1158.098755 888.019409,1174.965820 
	C887.592834,1187.061279 887.375061,1199.164185 886.967346,1211.260498 
	C886.879578,1213.864380 886.332336,1216.449829 886.075134,1219.051636 
	C885.709961,1222.744629 885.890137,1226.005127 889.200317,1228.844482 
	C897.093140,1235.614624 904.617126,1242.813843 912.321289,1249.805420 
	C918.917847,1255.791748 925.516663,1261.777100 932.218201,1267.644409 
	C933.364258,1268.647949 935.064941,1269.701660 936.451843,1269.629150 
	C942.840515,1269.295288 949.198181,1268.384155 955.586365,1268.024902 
	C969.605103,1267.236084 983.631836,1266.558594 997.662292,1266.019775 
	C1009.916321,1265.549316 1022.181274,1265.016479 1034.439087,1265.068481 
	C1057.536987,1265.166382 1080.635864,1265.537109 1103.729248,1266.033325 
	C1127.254517,1266.538574 1150.775757,1267.270752 1174.294800,1268.025024 
	C1184.756958,1268.360474 1195.209351,1268.993896 1205.990723,1269.507568 
	C1205.647095,1268.647339 1205.271240,1268.086670 1205.207886,1267.492798 
	C1203.103882,1247.785400 1200.983521,1228.079712 1198.967285,1208.363281 
	C1197.561646,1194.619019 1196.248413,1180.864624 1194.996948,1167.105469 
	C1193.595215,1151.693604 1192.257812,1136.275269 1190.989258,1120.851807 
	C1189.912964,1107.766357 1188.915161,1094.673828 1187.991455,1081.576660 
	C1186.915649,1066.324707 1185.896484,1051.067993 1184.965576,1035.806519 
	C1183.903442,1018.392578 1182.893677,1000.974854 1181.995483,983.551819 
	C1181.212646,968.364502 1180.508789,953.171326 1179.969849,937.973694 
	C1179.476196,924.053589 1179.228027,910.124634 1178.921265,896.198425 
	C1178.844238,892.703430 1179.105347,889.197815 1178.952393,885.708374 
	C1178.540771,876.324097 1177.989624,866.945984 1177.462036,856.961914 
	C1180.915283,856.961914 1183.536743,856.894226 1186.153564,856.973755 
	C1196.585693,857.290955 1207.014404,857.820190 1217.448486,857.958008 
	C1230.606323,858.131775 1243.821899,858.717163 1256.908936,857.738831 
	C1265.153320,857.122498 1269.605469,860.746704 1273.967163,866.572632 
	C1284.539551,880.694275 1295.348999,894.639465 1306.129395,908.604187 
	C1319.021240,925.304016 1332.148193,941.825012 1344.873413,958.650269 
	C1362.397095,981.819824 1379.663940,1005.183838 1396.996338,1028.497559 
	C1418.354614,1057.225830 1439.822632,1085.874268 1460.953613,1114.768799 
	C1480.232910,1141.131348 1499.125732,1167.776611 1518.607178,1194.899536 
z"/>
<path fill="#9B0AE0" opacity="1.000000" stroke="none" 
	d="
M0.999995,1165.428467 
	C14.186709,1168.417114 27.264580,1172.359619 40.587414,1175.119507 
	C57.628929,1178.649536 74.892502,1178.419312 92.285225,1177.266235 
	C107.571312,1176.252930 122.519501,1173.917480 137.195175,1169.916260 
	C158.488968,1164.110474 177.962982,1154.490601 195.167358,1140.498901 
	C215.826797,1123.697266 230.919205,1102.634277 241.760025,1078.537476 
	C250.897079,1058.227783 257.426025,1037.030273 261.057709,1015.001526 
	C263.023438,1003.078003 265.078094,991.167725 266.880066,979.219421 
	C267.565308,974.675781 267.784790,970.048096 267.989197,965.448608 
	C268.407867,956.026978 268.773956,946.600769 268.979614,937.172424 
	C269.385254,918.576233 269.963531,899.976746 269.928253,881.379639 
	C269.879089,855.448914 269.374542,829.518555 268.984528,803.589233 
	C268.729919,786.661133 268.255798,769.736328 268.016998,752.808105 
	C267.620667,724.716003 266.959747,696.619690 267.159546,668.530457 
	C267.260040,654.400635 268.930481,640.276489 270.035645,626.161072 
	C270.932831,614.701782 271.557953,603.189880 273.176239,591.825562 
	C275.665314,574.346375 278.774780,556.951111 281.851440,539.560974 
	C286.334351,514.222168 293.139130,489.469818 302.039734,465.350281 
	C307.066772,451.727600 312.825867,438.360413 318.641418,425.046844 
	C327.359650,405.088135 338.154510,386.220245 350.960999,368.638184 
	C359.717438,356.616394 368.871521,344.751373 379.014740,333.907776 
	C390.461823,321.670319 402.641327,309.956238 415.578247,299.323608 
	C426.604858,290.260986 438.838257,282.524475 451.106750,275.147552 
	C470.740967,263.341766 491.803986,254.485840 513.701904,247.740646 
	C532.909729,241.824097 552.524048,237.877670 572.418945,234.814209 
	C601.929443,230.270126 631.585999,230.325836 661.185913,231.314682 
	C678.085815,231.879242 695.068726,234.683121 711.673523,238.123428 
	C731.038025,242.135498 750.318787,247.064728 769.099182,253.230545 
	C786.035095,258.790802 802.187378,266.707825 818.813477,273.260010 
	C823.833557,275.238373 824.252625,279.771576 825.802124,283.579529 
	C834.978760,306.130920 843.916016,328.779724 853.196167,352.053772 
	C847.439148,351.301910 842.147827,350.669189 836.874695,349.910217 
	C825.563354,348.282196 814.310547,345.951508 802.943848,345.075134 
	C786.792114,343.829895 770.545288,342.876587 754.364624,343.176453 
	C732.640930,343.579041 711.523682,347.779419 691.271362,356.203552 
	C671.815491,364.296356 655.040833,376.062775 641.023743,391.610413 
	C627.334229,406.794769 617.576416,424.476593 609.991638,443.411224 
	C601.252441,465.227844 595.685120,487.948242 591.203735,510.911560 
	C588.764893,523.408325 587.386108,536.139221 586.068726,548.820618 
	C584.421265,564.679810 582.872742,580.574585 582.104797,596.493713 
	C581.010864,619.171265 580.535339,641.882202 580.050415,664.584290 
	C579.772827,677.577820 579.932312,690.582703 580.012146,703.581726 
	C580.315674,753.013062 580.842957,802.443970 580.893921,851.875427 
	C580.909424,866.906555 579.839478,881.949829 578.933289,896.967407 
	C578.220459,908.780762 577.531433,920.638733 575.883606,932.343323 
	C572.677063,955.118774 569.020203,977.837463 565.146423,1000.510681 
	C561.520630,1021.732849 554.767822,1042.144409 546.817871,1062.056641 
	C536.812622,1087.117065 524.306030,1111.015503 507.228638,1132.033081 
	C494.673401,1147.485107 481.628754,1162.692261 467.434082,1176.613525 
	C455.082092,1188.727661 441.167450,1199.357910 427.301636,1209.791016 
	C410.397644,1222.510132 391.792419,1232.595093 372.636688,1241.525757 
	C346.744873,1253.597168 319.729126,1262.437500 291.679291,1267.863159 
	C277.377747,1270.629517 262.941132,1272.718872 248.533752,1274.904419 
	C243.985291,1275.594604 239.337921,1275.786377 234.728516,1275.894043 
	C216.140060,1276.328857 197.532852,1277.273193 178.963425,1276.805176 
	C163.383606,1276.412354 147.752197,1274.988159 132.315018,1272.807373 
	C113.762863,1270.186768 95.179993,1267.142334 77.009026,1262.664062 
	C62.034718,1258.973511 47.611889,1253.008179 33.033684,1247.801758 
	C31.466619,1247.242065 29.956711,1245.220947 29.326063,1243.538330 
	C21.458298,1222.545410 13.787120,1201.479126 5.985989,1180.461060 
	C4.704177,1177.007446 3.040478,1173.695801 1.276638,1170.659180 
	C1.000000,1169.285645 1.000000,1167.571289 0.999995,1165.428467 
z"/>
<path fill="#9B0AE0" opacity="1.000000" stroke="none" 
	d="
M1518.397949,1194.598389 
	C1499.125732,1167.776611 1480.232910,1141.131348 1460.953613,1114.768799 
	C1439.822632,1085.874268 1418.354614,1057.225830 1396.996338,1028.497559 
	C1379.663940,1005.183838 1362.397095,981.819824 1344.873413,958.650269 
	C1332.148193,941.825012 1319.021240,925.304016 1306.129395,908.604187 
	C1295.348999,894.639465 1284.539551,880.694275 1273.967163,866.572632 
	C1269.605469,860.746704 1265.153320,857.122498 1256.908936,857.738831 
	C1243.821899,858.717163 1230.606323,858.131775 1217.448486,857.958008 
	C1207.014404,857.820190 1196.585693,857.290955 1186.153564,856.973755 
	C1183.536743,856.894226 1180.915283,856.961914 1177.462036,856.961914 
	C1177.989624,866.945984 1178.540771,876.324097 1178.952393,885.708374 
	C1179.105347,889.197815 1178.844238,892.703430 1178.921265,896.198425 
	C1179.228027,910.124634 1179.476196,924.053589 1179.969849,937.973694 
	C1180.508789,953.171326 1181.212646,968.364502 1181.995483,983.551819 
	C1182.893677,1000.974854 1183.903442,1018.392578 1184.965576,1035.806519 
	C1185.896484,1051.067993 1186.915649,1066.324707 1187.991455,1081.576660 
	C1188.915161,1094.673828 1189.912964,1107.766357 1190.989258,1120.851807 
	C1192.257812,1136.275269 1193.595215,1151.693604 1194.996948,1167.105469 
	C1196.248413,1180.864624 1197.561646,1194.619019 1198.967285,1208.363281 
	C1200.983521,1228.079712 1203.103882,1247.785400 1205.207886,1267.492798 
	C1205.271240,1268.086670 1205.647095,1268.647339 1205.990723,1269.507568 
	C1195.209351,1268.993896 1184.756958,1268.360474 1174.294800,1268.025024 
	C1150.775757,1267.270752 1127.254517,1266.538574 1103.729248,1266.033325 
	C1080.635864,1265.537109 1057.536987,1265.166382 1034.439087,1265.068481 
	C1022.181274,1265.016479 1009.916321,1265.549316 997.662292,1266.019775 
	C983.631836,1266.558594 969.605103,1267.236084 955.586365,1268.024902 
	C949.198181,1268.384155 942.840515,1269.295288 936.451843,1269.629150 
	C935.064941,1269.701660 933.364258,1268.647949 932.218201,1267.644409 
	C925.516663,1261.777100 918.917847,1255.791748 912.321289,1249.805420 
	C904.617126,1242.813843 897.093140,1235.614624 889.200317,1228.844482 
	C885.890137,1226.005127 885.709961,1222.744629 886.075134,1219.051636 
	C886.332336,1216.449829 886.879578,1213.864380 886.967346,1211.260498 
	C887.375061,1199.164185 887.592834,1187.061279 888.019409,1174.965820 
	C888.614197,1158.098755 889.367249,1141.237061 889.991882,1124.370850 
	C890.696655,1105.341064 891.346985,1086.309204 891.995850,1067.277344 
	C892.357117,1056.679321 892.681335,1046.080200 892.996704,1035.480835 
	C893.346680,1023.715820 893.682373,1011.950439 893.997070,1000.184387 
	C894.347351,987.086182 894.699280,973.987793 894.992004,960.888184 
	C895.359131,944.457092 895.719421,928.025513 895.987732,911.592651 
	C896.370361,888.162048 896.800781,864.730957 896.973450,841.298401 
	C897.389038,784.869690 897.808594,728.440247 897.934570,672.010498 
	C897.989868,647.246704 897.375122,622.480652 896.984619,597.716919 
	C896.730835,581.617126 896.357727,565.519043 895.991394,549.421265 
	C895.697144,536.488281 895.347839,523.556519 894.995056,510.625000 
	C894.683167,499.192261 894.347534,487.760132 893.994507,476.328583 
	C893.682495,466.229004 893.340393,456.130341 892.996155,446.031799 
	C892.674561,436.599121 892.350891,427.166473 891.995789,417.735046 
	C891.341980,400.369873 890.698425,383.004150 889.986572,365.641327 
	C889.370239,350.607819 888.758911,335.573029 887.963928,320.548401 
	C887.494507,311.676758 886.702515,302.821381 885.993652,293.963654 
	C885.717163,290.508026 886.412720,287.784607 889.182251,285.160645 
	C902.089111,272.932159 914.716797,260.409393 927.496216,248.045502 
	C930.334351,245.299606 933.287292,242.649918 936.387207,240.209763 
	C937.418152,239.398285 939.073730,239.048691 940.444214,239.047760 
	C1019.439148,238.994522 1098.434326,238.921234 1177.429077,239.046280 
	C1202.694214,239.086273 1227.959351,239.615494 1253.222778,240.020523 
	C1266.823364,240.238571 1280.423950,240.567673 1294.018311,241.026993 
	C1310.553345,241.585678 1327.088867,242.196930 1343.611328,243.039795 
	C1359.750977,243.863113 1375.897461,244.729965 1391.997925,246.089447 
	C1407.349731,247.385757 1422.713501,248.877747 1437.953125,251.099106 
	C1477.310181,256.835876 1516.244385,264.575256 1552.953979,280.552094 
	C1580.387817,292.491913 1606.457397,307.105530 1629.897705,325.735870 
	C1643.451050,336.508148 1656.461304,348.264984 1668.160767,361.006683 
	C1693.739624,388.864227 1712.726440,420.968384 1723.464233,457.359680 
	C1727.865845,472.277100 1730.114136,487.853333 1732.959473,503.200775 
	C1736.771362,523.761780 1735.701050,544.642944 1734.686646,565.258667 
	C1733.197876,595.515015 1727.263428,625.251709 1715.660889,653.388306 
	C1706.872192,674.701538 1695.617920,694.707336 1680.903687,712.785339 
	C1661.224854,736.962891 1637.683350,756.226562 1610.733643,771.603821 
	C1592.477051,782.020935 1573.275269,790.251770 1553.388550,796.960022 
	C1552.647949,797.209900 1551.963623,797.626831 1550.997437,798.087891 
	C1557.664429,805.914429 1564.107788,813.546204 1570.625244,821.113892 
	C1581.251343,833.452209 1591.890503,845.779724 1602.594360,858.050476 
	C1608.231323,864.512573 1614.023560,870.839050 1619.734009,877.237244 
	C1633.455444,892.611694 1647.131958,908.026611 1660.903198,923.356445 
	C1668.302124,931.593079 1675.802124,939.740967 1683.356567,947.835510 
	C1698.381226,963.934692 1713.479736,979.964905 1728.538452,996.032227 
	C1738.274170,1006.419861 1747.964844,1016.849792 1757.727173,1027.212402 
	C1769.545288,1039.757324 1781.389526,1052.278076 1793.273926,1064.760376 
	C1807.685791,1079.897217 1822.165527,1094.969482 1836.573853,1110.109741 
	C1838.149292,1111.765259 1839.448486,1113.683594 1840.760254,1115.334595 
	C1820.410156,1130.242432 1800.007324,1144.917114 1779.916504,1160.007568 
	C1767.641479,1169.227295 1755.763672,1178.984741 1743.856812,1188.683838 
	C1730.027222,1199.948975 1716.247803,1211.281250 1702.662842,1222.838623 
	C1693.137939,1230.942139 1683.912109,1239.401855 1674.666016,1247.826904 
	C1661.852295,1259.502930 1649.072754,1271.218750 1636.414551,1283.062500 
	C1626.361694,1292.468262 1616.458984,1302.036865 1606.609741,1311.656006 
	C1604.024292,1314.181274 1602.855347,1314.631104 1600.391724,1311.045776 
	C1584.848389,1288.426636 1568.970093,1266.037109 1553.150391,1243.608398 
	C1541.677490,1227.342773 1530.124512,1211.133789 1518.397949,1194.598389 
M1179.059570,788.999817 
	C1188.515625,788.010742 1198.034302,787.420349 1207.414062,785.945984 
	C1224.632812,783.239380 1241.875366,780.509460 1258.915283,776.883484 
	C1283.754150,771.597900 1307.892212,763.842896 1330.886108,752.956787 
	C1350.266479,743.781616 1368.509766,732.811584 1384.925293,718.761230 
	C1402.750366,703.504639 1417.770386,686.062683 1428.813721,665.408081 
	C1445.578369,634.053284 1451.751587,600.022217 1452.923096,564.891113 
	C1453.131470,558.644043 1452.605957,552.334595 1451.945435,546.104126 
	C1450.409546,531.618164 1449.703979,516.920471 1446.635498,502.747375 
	C1440.843018,475.991577 1430.288208,451.049774 1414.181885,428.624146 
	C1402.661011,412.583038 1389.326782,398.271545 1373.626465,386.375549 
	C1356.588989,373.466278 1338.444458,362.374023 1318.709473,353.789246 
	C1300.015503,345.657379 1280.972168,338.711578 1261.172363,334.053741 
	C1243.763794,329.958435 1226.194092,326.520386 1208.631836,323.121460 
	C1202.249634,321.886292 1195.683105,321.603668 1189.214111,320.887909 
	C1188.752686,324.702606 1188.153198,327.996399 1187.988159,331.311798 
	C1187.245117,346.231079 1186.599609,361.155365 1185.967773,376.079895 
	C1185.268555,392.598175 1184.585083,409.117310 1183.962646,425.638611 
	C1183.260742,444.267090 1182.617432,462.897858 1181.981812,481.528748 
	C1181.609009,492.453217 1181.280640,503.379242 1180.969116,514.305664 
	C1180.623535,526.426453 1180.294556,538.547791 1180.004517,550.670044 
	C1179.642700,565.792725 1179.213989,580.915100 1179.027344,596.040283 
	C1178.864502,609.225769 1179.101440,622.415955 1178.954346,635.601807 
	C1178.883911,641.913208 1178.097656,648.217285 1178.043579,654.528137 
	C1177.870850,674.684753 1177.888916,694.842896 1177.291626,715.636414 
	C1177.200317,739.560730 1177.101685,763.485046 1177.066162,787.409424 
	C1177.065308,787.938904 1177.782959,788.469360 1179.059570,788.999817 
z"/>
<path fill="none" opacity="1.000000" stroke="none" 
	d="
M1177.833374,715.000488 
	C1177.888916,694.842896 1177.870850,674.684753 1178.043579,654.528137 
	C1178.097656,648.217285 1178.883911,641.913208 1178.954346,635.601807 
	C1179.101440,622.415955 1178.864502,609.225769 1179.027344,596.040283 
	C1179.213989,580.915100 1179.642700,565.792725 1180.004517,550.670044 
	C1180.294556,538.547791 1180.623535,526.426453 1180.969116,514.305664 
	C1181.280640,503.379242 1181.609009,492.453217 1181.981812,481.528748 
	C1182.617432,462.897858 1183.260742,444.267090 1183.962646,425.638611 
	C1184.585083,409.117310 1185.268555,392.598175 1185.967773,376.079895 
	C1186.599609,361.155365 1187.245117,346.231079 1187.988159,331.311798 
	C1188.153198,327.996399 1188.752686,324.702606 1189.214111,320.887909 
	C1195.683105,321.603668 1202.249634,321.886292 1208.631836,323.121460 
	C1226.194092,326.520386 1243.763794,329.958435 1261.172363,334.053741 
	C1280.972168,338.711578 1300.015503,345.657379 1318.709473,353.789246 
	C1338.444458,362.374023 1356.588989,373.466278 1373.626465,386.375549 
	C1389.326782,398.271545 1402.661011,412.583038 1414.181885,428.624146 
	C1430.288208,451.049774 1440.843018,475.991577 1446.635498,502.747375 
	C1449.703979,516.920471 1450.409546,531.618164 1451.945435,546.104126 
	C1452.605957,552.334595 1453.131470,558.644043 1452.923096,564.891113 
	C1451.751587,600.022217 1445.578369,634.053284 1428.813721,665.408081 
	C1417.770386,686.062683 1402.750366,703.504639 1384.925293,718.761230 
	C1368.509766,732.811584 1350.266479,743.781616 1330.886108,752.956787 
	C1307.892212,763.842896 1283.754150,771.597900 1258.915283,776.883484 
	C1241.875366,780.509460 1224.632812,783.239380 1207.414062,785.945984 
	C1198.034302,787.420349 1188.515625,788.010742 1178.545166,788.534424 
	C1177.964966,763.712830 1177.899170,739.356628 1177.833374,715.000488 
z"/>
<path fill="#C05871" opacity="1.000000" stroke="none" 
	d="
M1177.562500,715.318481 
	C1177.899170,739.356628 1177.964966,763.712830 1178.098145,788.534180 
	C1177.782959,788.469360 1177.065308,787.938904 1177.066162,787.409424 
	C1177.101685,763.485046 1177.200317,739.560730 1177.562500,715.318481 
z"/>
</svg>